<?xml version="1.0" standalone="no"?>
<!DOCTYPE svg PUBLIC "-//W3C//DTD SVG 20010904//EN"
 "http://www.w3.org/TR/2001/REC-SVG-20010904/DTD/svg10.dtd">
<svg version="1.0" xmlns="http://www.w3.org/2000/svg"
 width="512.000000pt" height="512.000000pt" viewBox="0 0 512.000000 512.000000"
 preserveAspectRatio="xMidYMid meet">
<metadata>
Created by potrace 1.14, written by Peter Selinger 2001-2017
</metadata>
<g transform="translate(0.000000,512.000000) scale(0.100000,-0.100000)"
fill="#000000" stroke="none">
<path d="M925 5109 c-418 -41 -773 -341 -884 -749 -11 -41 -25 -124 -31 -185
-14 -151 -14 -3081 0 -3230 13 -131 30 -201 77 -315 72 -176 212 -345 374
-452 152 -100 295 -150 484 -168 150 -14 3080 -14 3230 0 188 18 332 68 483
167 260 172 421 445 451 764 14 152 15 3068 1 3228 -12 137 -29 207 -77 321
-76 180 -212 345 -375 453 -148 99 -294 149 -483 167 -135 12 -3118 11 -3250
-1z m1952 -414 c626 -92 1186 -461 1521 -1002 236 -380 349 -840 314 -1285
-13 -176 -31 -279 -74 -433 -98 -353 -282 -668 -543 -931 -337 -339 -751 -549
-1225 -621 -157 -23 -463 -23 -620 0 -474 72 -888 282 -1225 621 -440 443
-665 1051 -617 1669 13 175 31 278 74 432 98 353 282 668 543 931 374 377 845
594 1380 638 95 7 364 -3 472 -19z"/>
<path d="M2298 3485 c-85 -47 -109 -215 -41 -296 72 -86 173 -74 230 26 47 83
20 220 -51 265 -39 23 -99 26 -138 5z"/>
<path d="M3199 3484 c-14 -9 -36 -32 -50 -52 -21 -31 -24 -47 -24 -118 0 -77
2 -85 31 -121 66 -81 159 -80 218 4 80 115 14 303 -107 303 -23 0 -54 -8 -68
-16z"/>
<path d="M2474 2710 c-30 -12 -54 -49 -54 -82 0 -64 131 -163 273 -206 106
-33 304 -37 407 -9 160 43 300 146 300 221 0 26 -7 40 -32 61 -41 35 -76 28
-135 -26 -157 -144 -481 -144 -646 1 -48 42 -80 54 -113 40z"/>
</g>
</svg>
