<?xml version="1.0" standalone="no"?>
<!DOCTYPE svg PUBLIC "-//W3C//DTD SVG 20010904//EN"
 "http://www.w3.org/TR/2001/REC-SVG-20010904/DTD/svg10.dtd">
<svg version="1.0" xmlns="http://www.w3.org/2000/svg"
 width="512.000000pt" height="512.000000pt" viewBox="0 0 512.000000 512.000000"
 preserveAspectRatio="xMidYMid meet">
<metadata>
Created by potrace 1.14, written by Peter Selinger 2001-2017
</metadata>
<g transform="translate(0.000000,512.000000) scale(0.100000,-0.100000)"
fill="#000000" stroke="none">
<path d="M864 5105 c-220 -40 -392 -125 -538 -264 -170 -162 -275 -359 -311
-583 -22 -139 -23 -3270 0 -3398 39 -224 138 -411 298 -567 156 -153 336 -243
550 -278 139 -22 3256 -22 3395 0 223 36 415 137 573 301 129 135 204 269 257
463 l27 96 3 1630 c2 1205 0 1653 -8 1720 -31 236 -139 447 -316 616 -125 120
-263 195 -453 248 l-96 26 -1655 2 c-1315 1 -1669 -1 -1726 -12z m1002 -720
c244 -42 493 -157 657 -304 88 -79 78 -76 143 -33 85 57 225 124 333 161 292
101 646 107 918 16 200 -67 348 -158 493 -304 157 -158 264 -336 329 -548 47
-152 55 -214 55 -398 0 -192 -12 -271 -70 -437 -59 -169 -144 -316 -258 -446
-45 -51 -56 -70 -56 -98 0 -79 -70 -202 -148 -259 -53 -39 -155 -75 -212 -75
l-37 0 -5 -63 c-14 -172 -162 -321 -333 -335 l-65 -5 0 -37 c0 -101 -71 -232
-158 -292 -76 -52 -134 -69 -230 -67 l-85 2 -17 -54 c-26 -85 -56 -122 -244
-309 -221 -220 -247 -235 -391 -235 -93 0 -105 2 -166 32 -119 59 -205 179
-216 302 l-6 58 -57 6 c-169 15 -326 172 -338 338 l-4 57 -54 6 c-96 11 -163
43 -229 110 -72 72 -106 139 -113 222 l-5 62 -53 6 c-89 10 -159 43 -224 103
-81 75 -112 141 -118 253 l-5 85 -117 122 c-131 135 -218 257 -290 407 -99
206 -139 372 -147 607 -6 183 7 300 52 450 138 461 533 802 1035 894 103 18
327 18 436 0z"/>
<path d="M1526 4200 c-354 -44 -665 -238 -836 -520 -165 -273 -201 -654 -93
-990 60 -190 182 -388 322 -525 l71 -69 167 165 c93 91 184 175 204 187 99 59
235 64 345 13 124 -58 210 -174 221 -298 l6 -60 69 -12 c93 -15 153 -45 216
-108 63 -63 102 -142 109 -222 l6 -58 69 -12 c185 -31 317 -171 330 -351 l4
-45 61 -6 c89 -8 174 -53 250 -132 98 -102 172 -127 258 -88 65 29 115 104
115 171 0 71 -12 85 -466 541 -439 440 -444 446 -444 486 0 56 37 93 94 93 41
0 44 -2 466 -426 234 -234 443 -436 465 -449 54 -31 95 -38 144 -25 100 27
158 129 131 231 -11 39 -59 91 -456 489 -428 430 -444 447 -444 484 0 52 44
96 96 96 36 0 54 -16 473 -434 240 -238 450 -440 466 -449 101 -50 211 -13
256 88 24 51 23 99 0 150 -13 27 -210 231 -610 630 l-590 589 -243 -240 c-184
-183 -260 -251 -313 -282 -165 -96 -352 -121 -540 -71 -82 22 -198 92 -275
166 l-75 72 450 451 450 451 -45 40 c-136 120 -340 223 -515 258 -120 24 -274
33 -369 21z"/>
<path d="M3360 4090 c-227 -23 -475 -119 -655 -252 -38 -29 -250 -231 -470
-450 -383 -380 -399 -398 -380 -412 67 -51 231 -79 337 -57 128 27 161 52 468
357 183 182 295 285 313 289 15 4 39 4 55 1 18 -5 237 -217 677 -656 357 -357
652 -646 655 -642 173 245 241 443 241 712 0 303 -107 570 -316 789 -155 161
-332 258 -560 305 -90 18 -269 27 -365 16z"/>
<path d="M1475 2286 c-16 -8 -105 -90 -196 -182 -180 -182 -197 -209 -185
-288 20 -121 156 -192 264 -137 55 28 359 340 367 377 4 16 9 37 11 46 15 53
-49 158 -113 184 -41 18 -109 17 -148 0z"/>
<path d="M1875 1884 c-16 -8 -103 -88 -193 -177 -119 -119 -167 -173 -178
-204 -45 -117 46 -243 175 -243 29 0 64 6 79 14 15 8 102 90 194 183 167 169
188 199 188 268 -1 56 -66 143 -123 164 -41 16 -107 13 -142 -5z"/>
<path d="M2274 1480 c-24 -12 -108 -89 -201 -183 -142 -144 -161 -167 -172
-210 -20 -82 17 -171 88 -207 53 -26 135 -27 178 -1 17 11 100 88 184 172 191
192 214 238 170 334 -46 99 -154 141 -247 95z"/>
<path d="M2691 1089 c-41 -12 -317 -278 -362 -348 -53 -82 -34 -198 41 -247
57 -38 97 -46 155 -33 46 11 64 26 213 172 182 180 207 218 200 298 -6 55 -43
111 -95 141 -38 23 -108 30 -152 17z"/>
</g>
</svg>
