<?xml version="1.0" standalone="no"?>
<!DOCTYPE svg PUBLIC "-//W3C//DTD SVG 20010904//EN"
 "http://www.w3.org/TR/2001/REC-SVG-20010904/DTD/svg10.dtd">
<svg version="1.0" xmlns="http://www.w3.org/2000/svg"
 width="580.000000pt" height="580.000000pt" viewBox="0 0 580.000000 580.000000"
 preserveAspectRatio="xMidYMid meet">
<metadata>
Created by potrace 1.14, written by Peter Selinger 2001-2017
</metadata>
<g transform="translate(0.000000,580.000000) scale(0.100000,-0.100000)"
fill="#000000" stroke="none">
<path d="M1765 4823 c-518 -43 -956 -375 -1104 -838 -48 -149 -64 -253 -64
-420 0 -396 140 -744 420 -1044 l88 -94 164 166 c228 231 300 280 432 294 166
17 350 -81 423 -226 30 -59 56 -151 56 -198 0 -33 0 -33 48 -33 202 0 402
-203 402 -406 l0 -44 38 0 c201 -2 382 -166 415 -380 l10 -69 46 -6 c131 -18
208 -59 315 -166 78 -80 108 -98 175 -106 160 -19 278 147 210 297 -15 34
-140 165 -510 536 -423 424 -490 495 -495 525 -12 74 56 139 130 124 24 -5
142 -117 526 -500 272 -271 511 -501 530 -510 19 -10 57 -18 85 -18 139 0 240
135 201 268 -14 45 -57 90 -516 550 l-500 501 0 47 c0 37 6 53 29 79 25 28 36
33 75 33 l45 0 493 -492 c521 -520 536 -532 626 -533 147 -1 252 153 197 288
-11 26 -220 241 -693 714 l-676 678 -286 -283 c-272 -270 -289 -286 -375 -329
-126 -65 -222 -88 -360 -88 -133 0 -230 22 -337 75 -88 44 -123 69 -211 154
l-68 65 511 511 512 512 -49 43 c-204 181 -459 291 -742 319 -100 11 -132 11
-216 4z"/>
<path d="M3726 4684 c-229 -35 -428 -113 -627 -245 -79 -52 -169 -137 -563
-530 l-470 -467 50 -25 c114 -58 265 -74 389 -42 129 34 158 57 506 402 l326
323 49 0 49 0 743 -742 c418 -419 746 -739 750 -733 190 261 275 511 275 810
0 212 -39 385 -131 574 -183 377 -521 620 -947 681 -97 13 -293 11 -399 -6z"/>
<path d="M1665 2651 c-49 -23 -409 -383 -425 -424 -5 -16 -10 -55 -10 -87 0
-49 5 -65 33 -106 59 -87 168 -119 262 -75 25 12 109 89 226 207 169 172 187
193 198 238 25 100 -19 194 -110 240 -63 31 -118 33 -174 7z"/>
<path d="M2110 2194 c-20 -9 -112 -92 -216 -197 -203 -204 -222 -234 -211
-329 15 -125 143 -211 265 -178 41 12 70 36 235 199 213 210 232 238 225 332
-8 111 -93 189 -207 189 -31 -1 -72 -8 -91 -16z"/>
<path d="M2580 1748 c-49 -16 -392 -354 -421 -416 -65 -133 21 -288 165 -300
96 -8 114 4 314 202 101 100 193 199 204 221 31 59 29 140 -6 199 -49 83 -161
125 -256 94z"/>
<path d="M3064 1300 c-56 -13 -96 -46 -275 -227 -192 -195 -208 -220 -197
-318 16 -137 181 -222 303 -158 22 12 122 104 221 205 146 147 184 191 193
223 21 76 10 141 -35 201 -40 55 -142 91 -210 74z"/>
</g>
</svg>
